<svg xmlns="http://www.w3.org/2000/svg" style="cursor: move;" width="1496" height="876"><g transform="translate(-13.108381642999461,0.5329331717291552) scale(1.0167746732919563)"><path class="link" style="stroke-width: 0.48; stroke-opacity: 1; stroke: rgb(80, 80, 80); fill: none;" marker-end="" d="M588,368, 768,368"></path><path class="link" style="stroke-width: 0.48; stroke-opacity: 1; stroke: rgb(80, 80, 80); fill: none;" marker-end="" d="M588,368, 768,408"></path><path class="link" style="stroke-width: 0.48; stroke-opacity: 1; stroke: rgb(80, 80, 80); fill: none;" marker-end="" d="M588,368, 768,448"></path><path class="link" style="stroke-width: 0.48; stroke-opacity: 1; stroke: rgb(80, 80, 80); fill: none;" marker-end="" d="M588,368, 768,488"></path><path class="link" style="stroke-width: 0.48; stroke-opacity: 1; stroke: rgb(80, 80, 80); fill: none;" marker-end="" d="M588,408, 768,368"></path><path class="link" style="stroke-width: 0.48; stroke-opacity: 1; stroke: rgb(80, 80, 80); fill: none;" marker-end="" d="M588,408, 768,408"></path><path class="link" style="stroke-width: 0.48; stroke-opacity: 1; stroke: rgb(80, 80, 80); fill: none;" marker-end="" d="M588,408, 768,448"></path><path class="link" style="stroke-width: 0.48; stroke-opacity: 1; stroke: rgb(80, 80, 80); fill: none;" marker-end="" d="M588,408, 768,488"></path><path class="link" style="stroke-width: 0.48; stroke-opacity: 1; stroke: rgb(80, 80, 80); fill: none;" marker-end="" d="M588,448, 768,368"></path><path class="link" style="stroke-width: 0.48; stroke-opacity: 1; stroke: rgb(80, 80, 80); fill: none;" marker-end="" d="M588,448, 768,408"></path><path class="link" style="stroke-width: 0.48; stroke-opacity: 1; stroke: rgb(80, 80, 80); fill: none;" marker-end="" d="M588,448, 768,448"></path><path class="link" style="stroke-width: 0.48; stroke-opacity: 1; stroke: rgb(80, 80, 80); fill: none;" marker-end="" d="M588,448, 768,488"></path><path class="link" style="stroke-width: 0.48; stroke-opacity: 1; stroke: rgb(80, 80, 80); fill: none;" marker-end="" d="M588,488, 768,368"></path><path class="link" style="stroke-width: 0.48; stroke-opacity: 1; stroke: rgb(80, 80, 80); fill: none;" marker-end="" d="M588,488, 768,408"></path><path class="link" style="stroke-width: 0.48; stroke-opacity: 1; stroke: rgb(80, 80, 80); fill: none;" marker-end="" d="M588,488, 768,448"></path><path class="link" style="stroke-width: 0.48; stroke-opacity: 1; stroke: rgb(80, 80, 80); fill: none;" marker-end="" d="M588,488, 768,488"></path><path class="link" style="stroke-width: 0.48; stroke-opacity: 1; stroke: rgb(80, 80, 80); fill: none;" marker-end="" d="M768,368, 948,408"></path><path class="link" style="stroke-width: 0.48; stroke-opacity: 1; stroke: rgb(80, 80, 80); fill: none;" marker-end="" d="M768,368, 948,448"></path><path class="link" style="stroke-width: 0.48; stroke-opacity: 1; stroke: rgb(80, 80, 80); fill: none;" marker-end="" d="M768,408, 948,408"></path><path class="link" style="stroke-width: 0.48; stroke-opacity: 1; stroke: rgb(80, 80, 80); fill: none;" marker-end="" d="M768,408, 948,448"></path><path class="link" style="stroke-width: 0.48; stroke-opacity: 1; stroke: rgb(80, 80, 80); fill: none;" marker-end="" d="M768,448, 948,408"></path><path class="link" style="stroke-width: 0.48; stroke-opacity: 1; stroke: rgb(80, 80, 80); fill: none;" marker-end="" d="M768,448, 948,448"></path><path class="link" style="stroke-width: 0.48; stroke-opacity: 1; stroke: rgb(80, 80, 80); fill: none;" marker-end="" d="M768,488, 948,408"></path><path class="link" style="stroke-width: 0.48; stroke-opacity: 1; stroke: rgb(80, 80, 80); fill: none;" marker-end="" d="M768,488, 948,448"></path><circle r="10" class="node" id="0_0" style="fill: rgb(255, 255, 255); stroke: rgb(51, 51, 51);" cx="588" cy="368"></circle><circle r="10" class="node" id="0_1" style="fill: rgb(255, 255, 255); stroke: rgb(51, 51, 51);" cx="588" cy="408"></circle><circle r="10" class="node" id="0_2" style="fill: rgb(255, 255, 255); stroke: rgb(51, 51, 51);" cx="588" cy="448"></circle><circle r="10" class="node" id="0_3" style="fill: rgb(255, 255, 255); stroke: rgb(51, 51, 51);" cx="588" cy="488"></circle><circle r="10" class="node" id="1_0" style="fill: rgb(255, 255, 255); stroke: rgb(51, 51, 51);" cx="768" cy="368"></circle><circle r="10" class="node" id="1_1" style="fill: rgb(255, 255, 255); stroke: rgb(51, 51, 51);" cx="768" cy="408"></circle><circle r="10" class="node" id="1_2" style="fill: rgb(255, 255, 255); stroke: rgb(51, 51, 51);" cx="768" cy="448"></circle><circle r="10" class="node" id="1_3" style="fill: rgb(255, 255, 255); stroke: rgb(51, 51, 51);" cx="768" cy="488"></circle><text class="text" dy=".35em" style="font-size: 12px;" x="553" y="528">Input Layer ∈ ℝ⁴</text><text class="text" dy=".35em" style="font-size: 12px;" x="733" y="528">Hidden Layer ∈ ℝ⁴</text><circle r="10" class="node" id="2_0" style="fill: rgb(255, 255, 255); stroke: rgb(51, 51, 51);" cx="948" cy="408"></circle><circle r="10" class="node" id="2_1" style="fill: rgb(255, 255, 255); stroke: rgb(51, 51, 51);" cx="948" cy="448"></circle><text class="text" dy=".35em" style="font-size: 12px;" x="913" y="528">Output Layer ∈ ℝ²</text></g><defs><marker id="arrow" viewBox="0 -5 10 10" markerWidth="7" markerHeight="7" orient="auto" refX="40"><path d="M0,-5L10,0L0,5" style="stroke: rgb(80, 80, 80); fill: none;"></path></marker></defs></svg>